{"title":"Christiane Paul &amp; Andrea Sawatzki - Das Leben ist eine Baust","uid":10757138,"size":335540606,"categoryP":"porn","categoryS":"other","magnet":"?xt=urn:btih:070a4e302df8a53b5e9c5437dee74a443361c2b2&amp;dn=Christiane+Paul+%26amp%3B+Andrea+Sawatzki+-+Das+Leben+ist+eine+Baust&amp;tr=udp%3A%2F%2Ftracker.openbittorrent.com%3A80&amp;tr=udp%3A%2F%2Fopen.demonii.com%3A1337&amp;tr=udp%3A%2F%2Ftracker.coppersurfer.tk%3A6969&amp;tr=udp%3A%2F%2Fexodus.desync.com%3A6969","seeders":0,"leechers":1,"uploader":"vpsr","files":1,"time":1407942708,"description":"Christiane Paul &amp; Andrea Sawatzki - Das Leben ist eine Baustelle[VPSR]\n\n\n &lt;a href=&quot;\nhttp://s25.postimg.org/6fgur5lzz/paul.jpg&quot; rel=&quot;nofollow&quot; target=&quot;_NEW&quot;&gt;\nhttp://s25.postimg.org/6fgur5lzz/paul.jpg&lt;/a&gt;\n\n &lt;a href=&quot;\nhttp://s25.postimg.org/hgbzw6e8v/Christiane_Paul_Andrea_Sawatzki_Das_Leben_is.jpg&quot; rel=&quot;nofollow&quot; target=&quot;_NEW&quot;&gt;\nhttp://s25.postimg.org/hgbzw6e8v/Christiane_Paul_Andrea_Sawatzki_Das_Leben_is.jpg&lt;/a&gt;\n\n\nFILE INFO\n\n\nGeneral\nID                                       : 1 (0x1)\nComplete name                            : Christiane Paul &amp; Andrea Sawatzki - Das Leben ist eine Baustelle[VPSR].ts\nFormat                                   : MPEG-TS\nFile size                                : 320 MiB\nDuration                                 : 5mn 0s\nOverall bit rate mode                    : Variable\nOverall bit rate                         : 8 928 Kbps\n\nVideo\nID                                       : 3583 (0xDFF)\nMenu ID                                  : 1 (0x1)\nFormat                                   : AVC\nFormat/Info                              : Advanced Video Codec\nFormat profile                           : &lt;a class=&quot;__cf_email__&quot; href=&quot;/cdn-cgi/l/email-protection&quot; data-cfemail=&quot;480529212608047c6678&quot;&gt;[email&amp;#160;protected]&lt;/a&gt;&lt;script cf-hash='f9e31' type=&quot;text/javascript&quot;&gt;\n/* &lt;![CDATA[ */!function(){try{var t=&quot;currentScript&quot;in document?document.currentScript:function(){for(var t=document.getElementsByTagName(&quot;script&quot;),e=t.length;e--;)if(t[e].getAttribute(&quot;cf-hash&quot;))return t[e]}();if(t&amp;&amp;t.previousSibling){var e,r,n,i,c=t.previousSibling,a=c.getAttribute(&quot;data-cfemail&quot;);if(a){for(e=&quot;&quot;,r=parseInt(a.substr(0,2),16),n=2;a.length-n;n+=2)i=parseInt(a.substr(n,2),16)^r,e+=String.fromCharCode(i);e=document.createTextNode(e),c.parentNode.replaceChild(e,c)}}}catch(u){}}();/* ]]&gt; */&lt;/script&gt;\nFormat settings, CABAC                   : Yes\nFormat settings, ReFrames                : 2 frames\nFormat settings, GOP                     : M=3, N=12\nCodec ID                                 : 27\nDuration                                 : 5mn 1s\nBit rate                                 : 8 326 Kbps\nWidth                                    : 1 920 pixels\nHeight                                   : 1 080 pixels\nDisplay aspect ratio                     : 16:9\nFrame rate                               : 25.000 fps\nColor space                              : YUV\nChroma subsampling                       : 4:2:0\nBit depth                                : 8 bits\nScan type                                : MBAFF\nBits/(Pixel*Frame)                       : 0.161\nStream size                              : 299 MiB (93%)\nColor primaries                          : BT.709\nTransfer characteristics                 : BT.709\nMatrix coefficients                      : BT.709\n\nAudio\nID                                       : 3584 (0xE00)\nMenu ID                                  : 1 (0x1)\nFormat                                   : MPEG Audio\nFormat version                           : Version 1\nFormat profile                           : Layer 2\nMode                                     : Joint stereo\nMode extension                           : Intensity Stereo + MS Stereo\nCodec ID                                 : 3\nDuration                                 : 5mn 0s\nBit rate mode                            : Constant\nBit rate                                 : 160 Kbps\nChannel(s)                               : 2 channels\nSampling rate                            : 48.0 KHz\nCompression mode                         : Lossy\nStream size                              : 5.73 MiB (2%)\nLanguage                                 : German\n\n","torrent":{"xt":"urn:btih:070a4e302df8a53b5e9c5437dee74a443361c2b2","amp;dn":"Christiane+Paul+%26amp%3B+Andrea+Sawatzki+-+Das+Leben+ist+eine+Baust","amp;tr":["udp%3A%2F%2Ftracker.openbittorrent.com%3A80","udp%3A%2F%2Fopen.demonii.com%3A1337","udp%3A%2F%2Ftracker.coppersurfer.tk%3A6969","udp%3A%2F%2Fexodus.desync.com%3A6969"],"infoHash":"070a4e302df8a53b5e9c5437dee74a443361c2b2","infoHashBuffer":{"type":"Buffer","data":[7,10,78,48,45,248,165,59,94,156,84,55,222,231,74,68,51,97,194,178]},"announce":[],"urlList":[]}}